<svg xmlns="http://www.w3.org/2000/svg" width="900" height="350" viewBox="0 0 900 350" style="font-family:-apple-system,system-ui,sans-serif;font-size:11px">
  <rect width="900" height="350" fill="#ffffff"/>
  <text x="450" y="16" text-anchor="middle" fill="#374151" font-size="13" font-weight="600">cpu_usage — 6h forecast</text>
  <rect x="45" y="24" width="845" height="298" fill="none" stroke="#e5e7eb" stroke-width="1"/>  <line x1="45" y1="316.7" x2="890" y2="316.7" stroke="#e5e7eb" stroke-width="1"/>
  <text x="41" y="320.7" text-anchor="end" fill="#374151" font-size="10">30</text>
  <line x1="45" y1="247.6" x2="890" y2="247.6" stroke="#e5e7eb" stroke-width="1"/>
  <text x="41" y="251.6" text-anchor="end" fill="#374151" font-size="10">40</text>
  <line x1="45" y1="178.5" x2="890" y2="178.5" stroke="#e5e7eb" stroke-width="1"/>
  <text x="41" y="182.5" text-anchor="end" fill="#374151" font-size="10">50</text>
  <line x1="45" y1="109.5" x2="890" y2="109.5" stroke="#e5e7eb" stroke-width="1"/>
  <text x="41" y="113.5" text-anchor="end" fill="#374151" font-size="10">60</text>
  <line x1="45" y1="40.4" x2="890" y2="40.4" stroke="#e5e7eb" stroke-width="1"/>
  <text x="41" y="44.4" text-anchor="end" fill="#374151" font-size="10">70</text>
  <line x1="166.3" y1="24" x2="166.3" y2="322" stroke="#e5e7eb" stroke-width="1" stroke-dasharray="4,4"/>
  <text x="166.3" y="334" text-anchor="middle" fill="#374151" font-size="10">Sat 00:00</text>
  <line x1="354.1" y1="24" x2="354.1" y2="322" stroke="#e5e7eb" stroke-width="1" stroke-dasharray="4,4"/>
  <text x="354.1" y="334" text-anchor="middle" fill="#374151" font-size="10">Sat 12:00</text>
  <line x1="541.8" y1="24" x2="541.8" y2="322" stroke="#e5e7eb" stroke-width="1" stroke-dasharray="4,4"/>
  <text x="541.8" y="334" text-anchor="middle" fill="#374151" font-size="10">Sun 00:00</text>
  <line x1="729.6" y1="24" x2="729.6" y2="322" stroke="#e5e7eb" stroke-width="1" stroke-dasharray="4,4"/>
  <text x="729.6" y="334" text-anchor="middle" fill="#374151" font-size="10">Sun 12:00</text>

  <polyline points="45.0,208.0 46.3,194.3 47.6,223.8 48.9,210.1 50.2,210.0 51.5,229.7 52.8,200.4 54.1,213.5 55.4,180.9 56.7,205.4 58.0,225.4 59.3,256.2 60.6,214.0 62.0,211.2 63.3,242.0 64.6,229.8 65.9,244.6 67.2,213.8 68.5,249.3 69.8,240.0 71.1,187.8 72.4,264.7 73.7,289.5 75.0,252.2 76.3,245.3 77.6,283.2 78.9,243.9 80.2,250.6 81.5,254.0 82.8,226.3 84.1,277.0 85.4,239.1 86.7,256.1 88.0,278.1 89.3,257.5 90.6,234.0 91.9,264.2 93.2,254.2 94.6,235.7 95.9,240.7 97.2,225.5 98.5,264.8 99.8,285.5 101.1,218.2 102.4,245.1 103.7,271.3 105.0,249.1 106.3,265.4 107.6,266.4 108.9,264.9 110.2,245.8 111.5,236.5 112.8,237.1 114.1,247.3 115.4,221.5 116.7,271.3 118.0,241.9 119.3,257.5 120.6,252.5 121.9,234.1 123.2,257.2 124.5,250.2 125.8,266.0 127.2,262.4 128.5,257.7 129.8,264.7 131.1,242.5 132.4,262.0 133.7,271.7 135.0,268.4 136.3,304.3 137.6,272.6 138.9,230.5 140.2,274.7 141.5,254.8 142.8,264.2 144.1,272.7 145.4,263.4 146.7,250.1 148.0,265.3 149.3,264.9 150.6,253.7 151.9,285.1 153.2,217.5 154.5,218.5 155.8,243.3 157.1,237.8 158.4,258.0 159.8,223.3 161.1,255.6 162.4,247.5 163.7,267.5 165.0,239.1 166.3,249.9 167.6,248.5 168.9,271.4 170.2,60.6 171.5,251.3 172.8,214.6 174.1,277.4 175.4,256.3 176.7,273.6 178.0,271.9 179.3,253.8 180.6,281.9 181.9,231.6 183.2,254.8 184.5,241.0 185.8,275.4 187.1,258.9 188.4,260.0 189.7,243.5 191.0,260.8 192.4,242.5 193.7,271.0 195.0,210.9 196.3,267.9 197.6,269.2 198.9,242.5 200.2,263.3 201.5,227.8 202.8,288.1 204.1,262.9 205.4,241.4 206.7,226.3 208.0,220.2 209.3,281.3 210.6,254.1 211.9,254.0 213.2,241.5 214.5,275.0 215.8,256.4 217.1,244.2 218.4,256.6 219.7,248.9 221.0,249.5 222.3,239.8 223.6,246.8 225.0,283.2 226.3,242.4 227.6,256.8 228.9,243.9 230.2,255.1 231.5,233.2 232.8,253.5 234.1,250.7 235.4,273.7 236.7,265.8 238.0,247.6 239.3,220.0 240.6,273.4 241.9,251.2 243.2,270.5 244.5,241.2 245.8,259.8 247.1,246.0 248.4,263.9 249.7,255.5 251.0,247.5 252.3,263.1 253.6,308.5 254.9,236.8 256.3,256.0 257.6,274.8 258.9,285.5 260.2,251.2 261.5,280.2 262.8,279.3 264.1,237.5 265.4,215.0 266.7,247.1 268.0,234.9 269.3,241.6 270.6,263.8 271.9,279.7 273.2,248.6 274.5,247.5 275.8,255.0 277.1,270.6 278.4,264.5 279.7,298.0 281.0,225.8 282.3,243.7 283.6,249.8 284.9,248.9 286.2,264.2 287.5,250.6 288.9,280.3 290.2,279.4 291.5,241.3 292.8,246.9 294.1,270.7 295.4,229.0 296.7,231.6 298.0,287.9 299.3,247.0 300.6,241.9 301.9,271.9 303.2,245.0 304.5,229.2 305.8,223.5 307.1,159.4 308.4,195.7 309.7,217.1 311.0,239.6 312.3,258.8 313.6,236.7 314.9,203.9 316.2,230.0 317.5,188.0 318.8,217.9 320.1,210.0 321.5,214.2 322.8,196.3 324.1,144.1 325.4,176.2 326.7,192.5 328.0,188.3 329.3,167.1 330.6,209.7 331.9,198.8 333.2,193.9 334.5,167.3 335.8,184.7 337.1,182.6 338.4,182.4 339.7,152.4 341.0,183.1 342.3,145.6 343.6,154.6 344.9,144.0 346.2,187.1 347.5,171.3 348.8,159.4 350.1,179.6 351.4,179.2 352.7,127.2 354.1,165.1 355.4,146.3 356.7,156.8 358.0,156.4 359.3,127.3 360.6,156.8 361.9,152.3 363.2,133.6 364.5,125.6 365.8,152.7 367.1,135.6 368.4,142.3 369.7,131.2 371.0,137.4 372.3,155.7 373.6,134.5 374.9,163.0 376.2,133.4 377.5,127.3 378.8,155.7 380.1,148.8 381.4,177.8 382.7,164.6 384.0,124.9 385.3,178.5 386.7,174.2 388.0,128.8 389.3,150.1 390.6,190.5 391.9,145.4 393.2,174.4 394.5,153.6 395.8,158.0 397.1,140.9 398.4,142.1 399.7,137.0 401.0,165.7 402.3,173.4 403.6,166.6 404.9,158.1 406.2,175.1 407.5,174.4 408.8,140.8 410.1,157.8 411.4,146.6 412.7,167.7 414.0,148.6 415.3,135.8 416.6,186.9 417.9,176.5 419.3,181.2 420.6,37.5 421.9,141.4 423.2,178.5 424.5,192.5 425.8,197.0 427.1,216.9 428.4,176.0 429.7,197.2 431.0,134.2 432.3,210.9 433.6,193.0 434.9,213.1 436.2,236.3 437.5,190.5 438.8,208.8 440.1,230.1 441.4,251.9 442.7,217.4 444.0,226.3 445.3,237.8 446.6,230.0 447.9,239.6 449.2,279.8 450.5,248.6 451.9,231.8 453.2,238.0 454.5,262.3 455.8,251.1 457.1,236.2 458.4,244.1 459.7,226.7 461.0,226.0 462.3,232.1 463.6,258.9 464.9,244.8 466.2,270.2 467.5,285.0 468.8,229.1 470.1,228.5 471.4,230.3 472.7,230.9 474.0,233.6 475.3,288.4 476.6,262.0 477.9,242.0 479.2,253.7 480.5,237.9 481.8,227.6 483.1,213.8 484.5,274.0 485.8,233.0 487.1,268.2 488.4,234.5 489.7,234.7 491.0,258.8 492.3,233.2 493.6,242.6 494.9,246.1 496.2,250.8 497.5,252.5 498.8,242.2 500.1,251.6 501.4,253.3 502.7,222.8 504.0,235.8 505.3,247.0 506.6,261.3 507.9,240.0 509.2,216.1 510.5,200.1 511.8,224.4 513.1,216.7 514.4,213.7 515.7,242.1 517.1,253.9 518.4,253.1 519.7,212.6 521.0,258.4 522.3,209.9 523.6,270.2 524.9,243.5 526.2,247.9 527.5,253.7 528.8,238.1 530.1,249.5 531.4,230.0 532.7,262.2 534.0,238.0 535.3,233.9 536.6,241.7 537.9,255.8 539.2,237.1 540.5,243.9 541.8,245.9 543.1,274.0 544.4,237.9 545.7,248.2 547.0,218.4 548.3,231.4 549.7,252.3 551.0,232.3 552.3,266.2 553.6,232.3 554.9,235.6 556.2,231.9 557.5,248.8 558.8,206.8 560.1,211.8 561.4,231.9 562.7,214.5 564.0,253.1 565.3,227.2 566.6,221.0 567.9,257.8 569.2,238.8 570.5,258.6 571.8,203.2 573.1,261.8 574.4,225.7 575.7,249.5 577.0,218.2 578.3,247.3 579.6,225.6 580.9,217.3 582.3,234.4 583.6,268.5 584.9,221.1 586.2,224.7 587.5,266.6 588.8,224.1 590.1,237.7 591.4,280.4 592.7,231.5 594.0,234.6 595.3,219.5 596.6,263.6 597.9,218.9 599.2,250.0 600.5,242.2 601.8,241.5 603.1,208.5 604.4,232.3 605.7,182.9 607.0,230.7 608.3,225.3 609.6,273.5 610.9,224.3 612.2,226.4 613.5,249.1 614.9,239.0 616.2,230.1 617.5,219.7 618.8,230.5 620.1,253.0 621.4,237.7 622.7,228.5 624.0,242.3 625.3,252.8 626.6,237.4 627.9,205.2 629.2,221.6 630.5,215.2 631.8,203.8 633.1,241.7 634.4,236.0 635.7,233.9 637.0,228.1 638.3,243.5 639.6,96.1 640.9,249.7 642.2,241.3 643.5,223.6 644.8,237.8 646.1,206.4 647.5,241.2 648.8,219.6 650.1,253.3 651.4,240.2 652.7,236.5 654.0,244.1 655.3,242.8 656.6,241.5 657.9,246.5 659.2,209.5 660.5,231.1 661.8,253.2 663.1,212.6 664.4,251.2 665.7,256.2 667.0,225.0 668.3,249.9 669.6,215.4 670.9,250.2 672.2,239.2 673.5,241.2 674.8,224.8 676.1,234.8 677.4,209.7 678.8,244.8 680.1,225.8 681.4,231.9 682.7,182.5 684.0,232.5 685.3,213.3 686.6,198.6 687.9,225.0 689.2,173.2 690.5,204.2 691.8,195.2 693.1,194.1 694.4,187.7 695.7,197.5 697.0,205.6 698.3,146.1 699.6,162.7 700.9,165.3 702.2,177.8 703.5,176.5 704.8,154.1 706.1,185.2 707.4,176.3 708.7,177.6 710.0,164.3 711.4,160.3 712.7,197.5 714.0,122.7 715.3,158.4 716.6,170.5 717.9,153.0 719.2,159.7 720.5,130.7 721.8,163.1 723.1,141.6 724.4,143.2 725.7,128.9 727.0,126.9 728.3,135.5 729.6,141.9 730.9,148.5 732.2,104.5 733.5,114.6 734.8,118.9 736.1,101.1 737.4,157.3 738.7,118.1 740.0,123.4 741.3,92.2 742.6,96.1 744.0,119.8 745.3,150.8 746.6,127.5 747.9,144.1 749.2,115.5 750.5,130.5 751.8,113.6 753.1,127.3 754.4,93.5 755.7,122.1 757.0,111.0 758.3,128.2 759.6,106.1 760.9,140.2 762.2,127.3 763.5,135.2 764.8,117.4 766.1,136.2 767.4,107.4 768.7,100.2 770.0,130.4 771.3,131.7 772.6,126.9 773.9,134.7 775.2,132.7 776.6,153.0 777.9,137.4 779.2,158.1 780.5,135.8 781.8,160.8 783.1,160.4 784.4,134.2 785.7,142.1 787.0,138.9 788.3,145.2 789.6,146.2 790.9,143.1 792.2,146.2 793.5,124.2 794.8,145.1 796.1,160.1" fill="none" stroke="#2563eb" stroke-width="1.5" stroke-linejoin="round"/>
  <polyline points="796.1,160.1 797.4,158.8 798.7,160.6 800.0,162.4 801.3,164.2 802.6,166.1 803.9,167.9 805.2,169.8 806.5,171.6 807.8,173.4 809.2,175.3 810.5,177.1 811.8,178.9 813.1,180.8 814.4,182.6 815.7,184.4 817.0,186.1 818.3,187.9 819.6,189.6 820.9,191.3 822.2,193.0 823.5,194.6 824.8,196.3 826.1,197.8 827.4,199.4 828.7,200.9 830.0,202.4 831.3,203.8 832.6,205.2 833.9,206.5 835.2,207.8 836.5,209.1 837.8,210.3 839.1,211.5 840.4,212.6 841.8,213.7 843.1,214.7 844.4,215.6 845.7,216.5 847.0,217.4 848.3,218.2 849.6,218.9 850.9,219.6 852.2,220.3 853.5,220.9 854.8,221.4 856.1,221.9 857.4,222.3 858.7,222.7 860.0,223.0 861.3,223.3 862.6,223.5 863.9,223.7 865.2,223.8 866.5,223.9 867.8,223.9 869.1,223.8 870.4,223.8 871.7,223.7 873.0,223.5 874.4,223.3 875.7,223.1 877.0,222.8 878.3,222.5 879.6,222.1 880.9,221.7 882.2,221.3 883.5,220.9 884.8,220.4 886.1,219.9 887.4,219.4 888.7,218.8 890.0,218.3" fill="none" stroke="#8b5cf6" stroke-width="2" stroke-dasharray="6,3" opacity="0.8"/>
  
  
  
</svg>
