<svg xmlns="http://www.w3.org/2000/svg" width="1000" height="400" viewBox="0 0 1000 400" style="font-family:-apple-system,system-ui,sans-serif;font-size:11px">
  <rect width="1000" height="400" fill="#ffffff"/>
  <text x="500" y="16" text-anchor="middle" fill="#374151" font-size="13" font-weight="600">Peak Bandwidth (Gbps) — 1yr history + 1yr forecast</text>
  <rect x="45" y="24" width="945" height="348" fill="none" stroke="#e5e7eb" stroke-width="1"/>  <line x1="45" y1="342.0" x2="990" y2="342.0" stroke="#e5e7eb" stroke-width="1"/>
  <text x="41" y="346.0" text-anchor="end" fill="#374151" font-size="10">40</text>
  <line x1="45" y1="275.1" x2="990" y2="275.1" stroke="#e5e7eb" stroke-width="1"/>
  <text x="41" y="279.1" text-anchor="end" fill="#374151" font-size="10">50</text>
  <line x1="45" y1="208.3" x2="990" y2="208.3" stroke="#e5e7eb" stroke-width="1"/>
  <text x="41" y="212.3" text-anchor="end" fill="#374151" font-size="10">60</text>
  <line x1="45" y1="141.5" x2="990" y2="141.5" stroke="#e5e7eb" stroke-width="1"/>
  <text x="41" y="145.5" text-anchor="end" fill="#374151" font-size="10">70</text>
  <line x1="45" y1="74.7" x2="990" y2="74.7" stroke="#e5e7eb" stroke-width="1"/>
  <text x="41" y="78.7" text-anchor="end" fill="#374151" font-size="10">80</text>
  <line x1="48.9" y1="24" x2="48.9" y2="372" stroke="#e5e7eb" stroke-width="1" stroke-dasharray="4,4"/>
  <text x="48.9" y="384" text-anchor="middle" fill="#374151" font-size="10">2/11</text>
  <line x1="206.8" y1="24" x2="206.8" y2="372" stroke="#e5e7eb" stroke-width="1" stroke-dasharray="4,4"/>
  <text x="206.8" y="384" text-anchor="middle" fill="#374151" font-size="10">6/13</text>
  <line x1="364.7" y1="24" x2="364.7" y2="372" stroke="#e5e7eb" stroke-width="1" stroke-dasharray="4,4"/>
  <text x="364.7" y="384" text-anchor="middle" fill="#374151" font-size="10">10/13</text>
  <line x1="522.7" y1="24" x2="522.7" y2="372" stroke="#e5e7eb" stroke-width="1" stroke-dasharray="4,4"/>
  <text x="522.7" y="384" text-anchor="middle" fill="#374151" font-size="10">2/12</text>
  <line x1="680.6" y1="24" x2="680.6" y2="372" stroke="#e5e7eb" stroke-width="1" stroke-dasharray="4,4"/>
  <text x="680.6" y="384" text-anchor="middle" fill="#374151" font-size="10">6/14</text>
  <line x1="838.5" y1="24" x2="838.5" y2="372" stroke="#e5e7eb" stroke-width="1" stroke-dasharray="4,4"/>
  <text x="838.5" y="384" text-anchor="middle" fill="#374151" font-size="10">10/14</text>

  <polyline points="45.0,344.8 46.3,354.0 47.6,345.3 48.9,313.2 50.2,321.2 51.5,330.8 52.8,354.5 54.1,345.0 55.4,346.1 56.7,339.1 57.9,327.8 59.2,318.6 60.5,342.3 61.8,347.3 63.1,339.7 64.4,356.2 65.7,337.5 67.0,329.3 68.3,330.9 69.6,334.4 70.9,333.3 72.2,328.8 73.5,325.7 74.8,346.7 76.1,321.1 77.4,322.6 78.7,339.3 80.0,335.1 81.2,337.3 82.5,340.7 83.8,334.4 85.1,314.7 86.4,305.3 87.7,334.5 89.0,334.1 90.3,355.1 91.6,338.8 92.9,333.3 94.2,326.1 95.5,316.9 96.8,353.8 98.1,335.7 99.4,346.5 100.7,334.1 102.0,339.5 103.3,320.5 104.5,306.1 105.8,344.4 107.1,334.3 108.4,324.2 109.7,355.4 111.0,345.6 112.3,320.2 113.6,323.7 114.9,322.3 116.2,335.3 117.5,327.3 118.8,327.9 120.1,317.0 121.4,300.1 122.7,314.5 124.0,332.3 125.3,341.3 126.6,331.1 127.8,328.3 129.1,339.8 130.4,310.0 131.7,319.8 133.0,339.7 134.3,319.3 135.6,332.9 136.9,330.2 138.2,331.7 139.5,319.4 140.8,313.5 142.1,333.1 143.4,317.7 144.7,338.9 146.0,329.9 147.3,342.8 148.6,310.1 149.9,327.9 151.2,346.2 152.4,332.6 153.7,341.4 155.0,335.3 156.3,331.0 157.6,313.1 158.9,326.6 160.2,334.1 161.5,336.8 162.8,334.4 164.1,333.1 165.4,321.2 166.7,313.5 168.0,305.3 169.3,332.3 170.6,334.1 171.9,331.5 173.2,336.7 174.5,337.3 175.7,296.6 177.0,306.2 178.3,320.0 179.6,325.2 180.9,318.2 182.2,333.9 183.5,330.1 184.8,306.7 186.1,306.2 187.4,330.7 188.7,325.5 190.0,327.9 191.3,334.9 192.6,340.2 193.9,300.4 195.2,313.5 196.5,341.1 197.8,312.3 199.0,335.2 200.3,327.1 201.6,327.1 202.9,291.2 204.2,320.2 205.5,333.3 206.8,342.2 208.1,319.1 209.4,340.8 210.7,329.0 212.0,313.5 213.3,299.9 214.6,330.7 215.9,328.8 217.2,329.0 218.5,320.4 219.8,316.6 221.1,309.3 222.3,298.3 223.6,321.4 224.9,332.2 226.2,318.7 227.5,328.7 228.8,323.0 230.1,303.7 231.4,310.7 232.7,333.7 234.0,316.3 235.3,331.0 236.6,327.4 237.9,325.6 239.2,280.2 240.5,300.8 241.8,301.3 243.1,311.3 244.4,316.2 245.7,308.9 246.9,312.6 248.2,276.9 249.5,291.4 250.8,322.1 252.1,317.8 253.4,303.6 254.7,310.0 256.0,309.0 257.3,291.9 258.6,284.4 259.9,306.5 261.2,314.4 262.5,321.4 263.8,318.0 265.1,297.7 266.4,285.0 267.7,293.4 269.0,298.3 270.2,308.6 271.5,300.3 272.8,311.8 274.1,306.5 275.4,286.0 276.7,290.6 278.0,313.2 279.3,296.3 280.6,301.4 281.9,296.9 283.2,308.1 284.5,274.5 285.8,290.5 287.1,298.6 288.4,306.6 289.7,308.3 291.0,294.8 292.3,299.2 293.5,292.9 294.8,293.1 296.1,304.7 297.4,310.4 298.7,309.6 300.0,307.3 301.3,304.5 302.6,285.6 303.9,285.8 305.2,300.3 306.5,318.2 307.8,314.4 309.1,315.4 310.4,317.6 311.7,270.4 313.0,280.3 314.3,297.5 315.6,289.3 316.8,308.0 318.1,296.7 319.4,300.3 320.7,305.7 322.0,282.6 323.3,310.4 324.6,299.5 325.9,292.1 327.2,307.6 328.5,303.7 329.8,280.7 331.1,274.7 332.4,308.5 333.7,297.3 335.0,293.9 336.3,292.3 337.6,299.3 338.9,285.8 340.2,282.6 341.4,293.8 342.7,299.2 344.0,288.4 345.3,311.8 346.6,295.8 347.9,290.7 349.2,273.1 350.5,294.0 351.8,299.7 353.1,294.2 354.4,293.6 355.7,319.9 357.0,289.0 358.3,293.1 359.6,315.5 360.9,319.0 362.2,321.0 363.5,300.5 364.7,313.5 366.0,309.2 367.3,293.2 368.6,319.9 369.9,315.8 371.2,320.5 372.5,318.7 373.8,313.5 375.1,295.2 376.4,283.7 377.7,310.5 379.0,316.0 380.3,310.0 381.6,313.0 382.9,322.7 384.2,300.2 385.5,285.4 386.8,317.1 388.0,311.0 389.3,327.8 390.6,303.0 391.9,314.0 393.2,285.4 394.5,303.3 395.8,325.0 397.1,308.0 398.4,321.7 399.7,306.4 401.0,324.2 402.3,272.3 403.6,279.7 404.9,324.0 406.2,309.3 407.5,308.5 408.8,319.8 410.1,314.4 411.3,278.4 412.6,290.6 413.9,312.4 415.2,311.4 416.5,315.2 417.8,313.6 419.1,312.0 420.4,283.6 421.7,299.5 423.0,305.2 424.3,292.2 425.6,317.1 426.9,305.3 428.2,288.6 429.5,282.1 430.8,289.6 432.1,297.6 433.4,311.8 434.7,321.4 435.9,293.2 437.2,310.5 438.5,292.4 439.8,289.0 441.1,299.0 442.4,306.8 443.7,291.7 445.0,309.4 446.3,301.5 447.6,293.0 448.9,282.5 450.2,297.7 451.5,301.5 452.8,320.1 454.1,316.4 455.4,296.7 456.7,282.8 458.0,279.3 459.2,304.8 460.5,300.1 461.8,316.0 463.1,305.2 464.4,301.2 465.7,285.8 467.0,285.5 468.3,317.5 469.6,303.9 470.9,294.1 472.2,307.1 473.5,308.7 474.8,268.7 476.1,271.1 477.4,313.2 478.7,307.8 480.0,301.3 481.3,297.9 482.5,298.8 483.8,274.7 485.1,287.6 486.4,309.8 487.7,308.7 489.0,297.2 490.3,312.1 491.6,314.4 492.9,286.1 494.2,281.9 495.5,301.5 496.8,297.6 498.1,312.3 499.4,303.1 500.7,300.0 502.0,265.5 503.3,282.1 504.6,310.1 505.8,302.5 507.1,292.6 508.4,292.0 509.7,308.2 511.0,281.2 512.3,274.1 513.6,311.3 514.9,293.6 516.2,290.8 517.5,295.3" fill="none" stroke="#2563eb" stroke-width="1.5" stroke-linejoin="round"/>
  <polyline points="517.5,295.3 518.8,288.0 520.1,280.4 521.4,280.1 522.7,287.0 524.0,295.7 525.3,299.2 526.6,294.7 527.9,285.2 529.2,277.5 530.4,277.2 531.7,284.1 533.0,292.7 534.3,296.2 535.6,291.6 536.9,282.1 538.2,274.4 539.5,274.0 540.8,280.9 542.1,289.4 543.4,292.9 544.7,288.2 546.0,278.7 547.3,270.9 548.6,270.5 549.9,277.3 551.2,285.8 552.5,289.2 553.7,284.6 555.0,274.9 556.3,267.2 557.6,266.7 558.9,273.5 560.2,281.9 561.5,285.3 562.8,280.6 564.1,270.9 565.4,263.1 566.7,262.6 568.0,269.3 569.3,277.7 570.6,281.1 571.9,276.3 573.2,266.6 574.5,258.8 575.8,258.2 577.0,264.9 578.3,273.3 579.6,276.6 580.9,271.8 582.2,262.0 583.5,254.1 584.8,253.6 586.1,260.2 587.4,268.6 588.7,271.8 590.0,267.0 591.3,257.2 592.6,249.3 593.9,248.7 595.2,255.3 596.5,263.6 597.8,266.8 599.1,262.0 600.3,252.2 601.6,244.2 602.9,243.6 604.2,250.1 605.5,258.4 606.8,261.6 608.1,256.8 609.4,246.9 610.7,238.9 612.0,238.3 613.3,244.8 614.6,253.1 615.9,256.3 617.2,251.4 618.5,241.5 619.8,233.5 621.1,232.8 622.4,239.3 623.7,247.6 624.9,250.7 626.2,245.8 627.5,235.9 628.8,227.9 630.1,227.2 631.4,233.7 632.7,241.9 634.0,245.1 635.3,240.1 636.6,230.2 637.9,222.2 639.2,221.4 640.5,227.9 641.8,236.2 643.1,239.3 644.4,234.3 645.7,224.4 647.0,216.4 648.2,215.6 649.5,222.1 650.8,230.3 652.1,233.4 653.4,228.5 654.7,218.6 656.0,210.5 657.3,209.8 658.6,216.3 659.9,224.5 661.2,227.6 662.5,222.6 663.8,212.7 665.1,204.6 666.4,203.9 667.7,210.4 669.0,218.6 670.3,221.7 671.5,216.7 672.8,206.8 674.1,198.7 675.4,198.0 676.7,204.5 678.0,212.7 679.3,215.8 680.6,210.8 681.9,200.9 683.2,192.9 684.5,192.1 685.8,198.6 687.1,206.8 688.4,209.9 689.7,205.0 691.0,195.1 692.3,187.0 693.6,186.3 694.8,192.8 696.1,201.0 697.4,204.2 698.7,199.2 700.0,189.3 701.3,181.3 702.6,180.6 703.9,187.1 705.2,195.3 706.5,198.5 707.8,193.5 709.1,183.7 710.4,175.6 711.7,174.9 713.0,181.5 714.3,189.7 715.6,192.9 716.9,188.0 718.2,178.1 719.4,170.1 720.7,169.4 722.0,176.0 723.3,184.2 724.6,187.4 725.9,182.5 727.2,172.7 728.5,164.7 729.8,164.0 731.1,170.6 732.4,178.9 733.7,182.1 735.0,177.2 736.3,167.4 737.6,159.4 738.9,158.8 740.2,165.4 741.5,173.7 742.7,176.9 744.0,172.1 745.3,162.3 746.6,154.3 747.9,153.7 749.2,160.3 750.5,168.7 751.8,171.9 753.1,167.1 754.4,157.3 755.7,149.4 757.0,148.8 758.3,155.5 759.6,163.8 760.9,167.1 762.2,162.3 763.5,152.5 764.8,144.6 766.0,144.1 767.3,150.7 768.6,159.1 769.9,162.4 771.2,157.6 772.5,147.9 773.8,140.0 775.1,139.5 776.4,146.2 777.7,154.6 779.0,157.9 780.3,153.1 781.6,143.4 782.9,135.6 784.2,135.1 785.5,141.8 786.8,150.2 788.1,153.5 789.3,148.8 790.6,139.1 791.9,131.3 793.2,130.8 794.5,137.5 795.8,146.0 797.1,149.3 798.4,144.6 799.7,135.0 801.0,127.2 802.3,126.7 803.6,133.4 804.9,141.9 806.2,145.3 807.5,140.6 808.8,130.9 810.1,123.2 811.4,122.7 812.7,129.5 813.9,137.9 815.2,141.3 816.5,136.7 817.8,127.0 819.1,119.3 820.4,118.8 821.7,125.6 823.0,134.1 824.3,137.5 825.6,132.8 826.9,123.2 828.2,115.5 829.5,115.0 830.8,121.8 832.1,130.3 833.4,133.8 834.7,129.1 836.0,119.5 837.2,111.7 838.5,111.3 839.8,118.1 841.1,126.6 842.4,130.1 843.7,125.4 845.0,115.8 846.3,108.1 847.6,107.6 848.9,114.5 850.2,123.0 851.5,126.4 852.8,121.8 854.1,112.2 855.4,104.4 856.7,104.0 858.0,110.8 859.3,119.3 860.5,122.8 861.8,118.1 863.1,108.5 864.4,100.8 865.7,100.4 867.0,107.2 868.3,115.7 869.6,119.1 870.9,114.5 872.2,104.8 873.5,97.1 874.8,96.7 876.1,103.5 877.4,112.0 878.7,115.4 880.0,110.7 881.3,101.1 882.6,93.4 883.8,92.9 885.1,99.7 886.4,108.2 887.7,111.6 889.0,106.9 890.3,97.3 891.6,89.5 892.9,89.1 894.2,95.8 895.5,104.3 896.8,107.7 898.1,103.0 899.4,93.4 900.7,85.6 902.0,85.1 903.3,91.9 904.6,100.3 905.9,103.7 907.2,99.0 908.4,89.3 909.7,81.5 911.0,81.0 912.3,87.7 913.6,96.2 914.9,99.5 916.2,94.8 917.5,85.1 918.8,77.2 920.1,76.7 921.4,83.4 922.7,91.8 924.0,95.1 925.3,90.4 926.6,80.6 927.9,72.8 929.2,72.2 930.5,78.9 931.7,87.3 933.0,90.5 934.3,85.7 935.6,76.0 936.9,68.1 938.2,67.5 939.5,74.1 940.8,82.5 942.1,85.7 943.4,80.9 944.7,71.1 946.0,63.1 947.3,62.5 948.6,69.1 949.9,77.4 951.2,80.6 952.5,75.8 953.8,65.9 955.0,58.0 956.3,57.3 957.6,63.8 958.9,72.1 960.2,75.3 961.5,70.4 962.8,60.5 964.1,52.5 965.4,51.8 966.7,58.3 968.0,66.5 969.3,69.6 970.6,64.7 971.9,54.8 973.2,46.7 974.5,45.9 975.8,52.4 977.1,60.6 978.3,63.7 979.6,58.7 980.9,48.7 982.2,40.6 983.5,39.8 984.8,46.2 986.1,54.4 987.4,57.4 988.7,52.4 990.0,42.4" fill="none" stroke="#8b5cf6" stroke-width="2" stroke-dasharray="6,3" opacity="0.8"/>
  
  
  
</svg>
