<svg xmlns="http://www.w3.org/2000/svg" width="900" height="350" viewBox="0 0 900 350" style="font-family:-apple-system,system-ui,sans-serif;font-size:11px">
  <rect width="900" height="350" fill="#ffffff"/>
  <text x="450" y="16" text-anchor="middle" fill="#374151" font-size="13" font-weight="600">cpu_usage — anomaly detection</text>
  <rect x="45" y="24" width="845" height="298" fill="none" stroke="#e5e7eb" stroke-width="1"/>  <line x1="45" y1="316.7" x2="890" y2="316.7" stroke="#e5e7eb" stroke-width="1"/>
  <text x="41" y="320.7" text-anchor="end" fill="#374151" font-size="10">30</text>
  <line x1="45" y1="247.6" x2="890" y2="247.6" stroke="#e5e7eb" stroke-width="1"/>
  <text x="41" y="251.6" text-anchor="end" fill="#374151" font-size="10">40</text>
  <line x1="45" y1="178.5" x2="890" y2="178.5" stroke="#e5e7eb" stroke-width="1"/>
  <text x="41" y="182.5" text-anchor="end" fill="#374151" font-size="10">50</text>
  <line x1="45" y1="109.5" x2="890" y2="109.5" stroke="#e5e7eb" stroke-width="1"/>
  <text x="41" y="113.5" text-anchor="end" fill="#374151" font-size="10">60</text>
  <line x1="45" y1="40.4" x2="890" y2="40.4" stroke="#e5e7eb" stroke-width="1"/>
  <text x="41" y="44.4" text-anchor="end" fill="#374151" font-size="10">70</text>
  <line x1="181.4" y1="24" x2="181.4" y2="322" stroke="#e5e7eb" stroke-width="1" stroke-dasharray="4,4"/>
  <text x="181.4" y="334" text-anchor="middle" fill="#374151" font-size="10">Sat 00:00</text>
  <line x1="392.7" y1="24" x2="392.7" y2="322" stroke="#e5e7eb" stroke-width="1" stroke-dasharray="4,4"/>
  <text x="392.7" y="334" text-anchor="middle" fill="#374151" font-size="10">Sat 12:00</text>
  <line x1="603.9" y1="24" x2="603.9" y2="322" stroke="#e5e7eb" stroke-width="1" stroke-dasharray="4,4"/>
  <text x="603.9" y="334" text-anchor="middle" fill="#374151" font-size="10">Sun 00:00</text>
  <line x1="815.2" y1="24" x2="815.2" y2="322" stroke="#e5e7eb" stroke-width="1" stroke-dasharray="4,4"/>
  <text x="815.2" y="334" text-anchor="middle" fill="#374151" font-size="10">Sun 12:00</text>

  <polyline points="45.0,208.0 46.5,194.3 47.9,223.8 49.4,210.1 50.9,210.0 52.3,229.7 53.8,200.4 55.3,213.5 56.7,180.9 58.2,205.4 59.7,225.4 61.1,256.2 62.6,214.0 64.1,211.2 65.5,242.0 67.0,229.8 68.5,244.6 69.9,213.8 71.4,249.3 72.9,240.0 74.3,187.8 75.8,264.7 77.3,289.5 78.7,252.2 80.2,245.3 81.7,283.2 83.1,243.9 84.6,250.6 86.1,254.0 87.5,226.3 89.0,277.0 90.5,239.1 91.9,256.1 93.4,278.1 94.9,257.5 96.3,234.0 97.8,264.2 99.3,254.2 100.7,235.7 102.2,240.7 103.7,225.5 105.1,264.8 106.6,285.5 108.1,218.2 109.5,245.1 111.0,271.3 112.5,249.1 113.9,265.4 115.4,266.4 116.9,264.9 118.4,245.8 119.8,236.5 121.3,237.1 122.8,247.3 124.2,221.5 125.7,271.3 127.2,241.9 128.6,257.5 130.1,252.5 131.6,234.1 133.0,257.2 134.5,250.2 136.0,266.0 137.4,262.4 138.9,257.7 140.4,264.7 141.8,242.5 143.3,262.0 144.8,271.7 146.2,268.4 147.7,304.3 149.2,272.6 150.6,230.5 152.1,274.7 153.6,254.8 155.0,264.2 156.5,272.7 158.0,263.4 159.4,250.1 160.9,265.3 162.4,264.9 163.8,253.7 165.3,285.1 166.8,217.5 168.2,218.5 169.7,243.3 171.2,237.8 172.6,258.0 174.1,223.3 175.6,255.6 177.0,247.5 178.5,267.5 180.0,239.1 181.4,249.9 182.9,248.5 184.4,271.4 185.8,60.6 187.3,251.3 188.8,214.6 190.2,277.4 191.7,256.3 193.2,273.6 194.6,271.9 196.1,253.8 197.6,281.9 199.0,231.6 200.5,254.8 202.0,241.0 203.4,275.4 204.9,258.9 206.4,260.0 207.8,243.5 209.3,260.8 210.8,242.5 212.2,271.0 213.7,210.9 215.2,267.9 216.6,269.2 218.1,242.5 219.6,263.3 221.0,227.8 222.5,288.1 224.0,262.9 225.4,241.4 226.9,226.3 228.4,220.2 229.8,281.3 231.3,254.1 232.8,254.0 234.2,241.5 235.7,275.0 237.2,256.4 238.6,244.2 240.1,256.6 241.6,248.9 243.0,249.5 244.5,239.8 246.0,246.8 247.4,283.2 248.9,242.4 250.4,256.8 251.8,243.9 253.3,255.1 254.8,233.2 256.3,253.5 257.7,250.7 259.2,273.7 260.7,265.8 262.1,247.6 263.6,220.0 265.1,273.4 266.5,251.2 268.0,270.5 269.5,241.2 270.9,259.8 272.4,246.0 273.9,263.9 275.3,255.5 276.8,247.5 278.3,263.1 279.7,308.5 281.2,236.8 282.7,256.0 284.1,274.8 285.6,285.5 287.1,251.2 288.5,280.2 290.0,279.3 291.5,237.5 292.9,215.0 294.4,247.1 295.9,234.9 297.3,241.6 298.8,263.8 300.3,279.7 301.7,248.6 303.2,247.5 304.7,255.0 306.1,270.6 307.6,264.5 309.1,298.0 310.5,225.8 312.0,243.7 313.5,249.8 314.9,248.9 316.4,264.2 317.9,250.6 319.3,280.3 320.8,279.4 322.3,241.3 323.7,246.9 325.2,270.7 326.7,229.0 328.1,231.6 329.6,287.9 331.1,247.0 332.5,241.9 334.0,271.9 335.5,245.0 336.9,229.2 338.4,223.5 339.9,159.4 341.3,195.7 342.8,217.1 344.3,239.6 345.7,258.8 347.2,236.7 348.7,203.9 350.1,230.0 351.6,188.0 353.1,217.9 354.5,210.0 356.0,214.2 357.5,196.3 358.9,144.1 360.4,176.2 361.9,192.5 363.3,188.3 364.8,167.1 366.3,209.7 367.7,198.8 369.2,193.9 370.7,167.3 372.1,184.7 373.6,182.6 375.1,182.4 376.5,152.4 378.0,183.1 379.5,145.6 380.9,154.6 382.4,144.0 383.9,187.1 385.3,171.3 386.8,159.4 388.3,179.6 389.7,179.2 391.2,127.2 392.7,165.1 394.1,146.3 395.6,156.8 397.1,156.4 398.6,127.3 400.0,156.8 401.5,152.3 403.0,133.6 404.4,125.6 405.9,152.7 407.4,135.6 408.8,142.3 410.3,131.2 411.8,137.4 413.2,155.7 414.7,134.5 416.2,163.0 417.6,133.4 419.1,127.3 420.6,155.7 422.0,148.8 423.5,177.8 425.0,164.6 426.4,124.9 427.9,178.5 429.4,174.2 430.8,128.8 432.3,150.1 433.8,190.5 435.2,145.4 436.7,174.4 438.2,153.6 439.6,158.0 441.1,140.9 442.6,142.1 444.0,137.0 445.5,165.7 447.0,173.4 448.4,166.6 449.9,158.1 451.4,175.1 452.8,174.4 454.3,140.8 455.8,157.8 457.2,146.6 458.7,167.7 460.2,148.6 461.6,135.8 463.1,186.9 464.6,176.5 466.0,181.2 467.5,37.5 469.0,141.4 470.4,178.5 471.9,192.5 473.4,197.0 474.8,216.9 476.3,176.0 477.8,197.2 479.2,134.2 480.7,210.9 482.2,193.0 483.6,213.1 485.1,236.3 486.6,190.5 488.0,208.8 489.5,230.1 491.0,251.9 492.4,217.4 493.9,226.3 495.4,237.8 496.8,230.0 498.3,239.6 499.8,279.8 501.2,248.6 502.7,231.8 504.2,238.0 505.6,262.3 507.1,251.1 508.6,236.2 510.0,244.1 511.5,226.7 513.0,226.0 514.4,232.1 515.9,258.9 517.4,244.8 518.8,270.2 520.3,285.0 521.8,229.1 523.2,228.5 524.7,230.3 526.2,230.9 527.6,233.6 529.1,288.4 530.6,262.0 532.0,242.0 533.5,253.7 535.0,237.9 536.4,227.6 537.9,213.8 539.4,274.0 540.9,233.0 542.3,268.2 543.8,234.5 545.3,234.7 546.7,258.8 548.2,233.2 549.7,242.6 551.1,246.1 552.6,250.8 554.1,252.5 555.5,242.2 557.0,251.6 558.5,253.3 559.9,222.8 561.4,235.8 562.9,247.0 564.3,261.3 565.8,240.0 567.3,216.1 568.7,200.1 570.2,224.4 571.7,216.7 573.1,213.7 574.6,242.1 576.1,253.9 577.5,253.1 579.0,212.6 580.5,258.4 581.9,209.9 583.4,270.2 584.9,243.5 586.3,247.9 587.8,253.7 589.3,238.1 590.7,249.5 592.2,230.0 593.7,262.2 595.1,238.0 596.6,233.9 598.1,241.7 599.5,255.8 601.0,237.1 602.5,243.9 603.9,245.9 605.4,274.0 606.9,237.9 608.3,248.2 609.8,218.4 611.3,231.4 612.7,252.3 614.2,232.3 615.7,266.2 617.1,232.3 618.6,235.6 620.1,231.9 621.5,248.8 623.0,206.8 624.5,211.8 625.9,231.9 627.4,214.5 628.9,253.1 630.3,227.2 631.8,221.0 633.3,257.8 634.7,238.8 636.2,258.6 637.7,203.2 639.1,261.8 640.6,225.7 642.1,249.5 643.5,218.2 645.0,247.3 646.5,225.6 647.9,217.3 649.4,234.4 650.9,268.5 652.3,221.1 653.8,224.7 655.3,266.6 656.7,224.1 658.2,237.7 659.7,280.4 661.1,231.5 662.6,234.6 664.1,219.5 665.5,263.6 667.0,218.9 668.5,250.0 669.9,242.2 671.4,241.5 672.9,208.5 674.3,232.3 675.8,182.9 677.3,230.7 678.8,225.3 680.2,273.5 681.7,224.3 683.2,226.4 684.6,249.1 686.1,239.0 687.6,230.1 689.0,219.7 690.5,230.5 692.0,253.0 693.4,237.7 694.9,228.5 696.4,242.3 697.8,252.8 699.3,237.4 700.8,205.2 702.2,221.6 703.7,215.2 705.2,203.8 706.6,241.7 708.1,236.0 709.6,233.9 711.0,228.1 712.5,243.5 714.0,96.1 715.4,249.7 716.9,241.3 718.4,223.6 719.8,237.8 721.3,206.4 722.8,241.2 724.2,219.6 725.7,253.3 727.2,240.2 728.6,236.5 730.1,244.1 731.6,242.8 733.0,241.5 734.5,246.5 736.0,209.5 737.4,231.1 738.9,253.2 740.4,212.6 741.8,251.2 743.3,256.2 744.8,225.0 746.2,249.9 747.7,215.4 749.2,250.2 750.6,239.2 752.1,241.2 753.6,224.8 755.0,234.8 756.5,209.7 758.0,244.8 759.4,225.8 760.9,231.9 762.4,182.5 763.8,232.5 765.3,213.3 766.8,198.6 768.2,225.0 769.7,173.2 771.2,204.2 772.6,195.2 774.1,194.1 775.6,187.7 777.0,197.5 778.5,205.6 780.0,146.1 781.4,162.7 782.9,165.3 784.4,177.8 785.8,176.5 787.3,154.1 788.8,185.2 790.2,176.3 791.7,177.6 793.2,164.3 794.6,160.3 796.1,197.5 797.6,122.7 799.0,158.4 800.5,170.5 802.0,153.0 803.4,159.7 804.9,130.7 806.4,163.1 807.8,141.6 809.3,143.2 810.8,128.9 812.2,126.9 813.7,135.5 815.2,141.9 816.6,148.5 818.1,104.5 819.6,114.6 821.1,118.9 822.5,101.1 824.0,157.3 825.5,118.1 826.9,123.4 828.4,92.2 829.9,96.1 831.3,119.8 832.8,150.8 834.3,127.5 835.7,144.1 837.2,115.5 838.7,130.5 840.1,113.6 841.6,127.3 843.1,93.5 844.5,122.1 846.0,111.0 847.5,128.2 848.9,106.1 850.4,140.2 851.9,127.3 853.3,135.2 854.8,117.4 856.3,136.2 857.7,107.4 859.2,100.2 860.7,130.4 862.1,131.7 863.6,126.9 865.1,134.7 866.5,132.7 868.0,153.0 869.5,137.4 870.9,158.1 872.4,135.8 873.9,160.8 875.3,160.4 876.8,134.2 878.3,142.1 879.7,138.9 881.2,145.2 882.7,146.2 884.1,143.1 885.6,146.2 887.1,124.2 888.5,145.1 890.0,160.1" fill="none" stroke="#2563eb" stroke-width="1.5" stroke-linejoin="round"/>
  
  <circle cx="185.8" cy="60.6" r="4" fill="#ef4444" stroke="#ffffff" stroke-width="1.5" opacity="0.9"/>
    <circle cx="339.9" cy="159.4" r="4" fill="#ef4444" stroke="#ffffff" stroke-width="1.5" opacity="0.9"/>
    <circle cx="467.5" cy="37.5" r="4" fill="#ef4444" stroke="#ffffff" stroke-width="1.5" opacity="0.9"/>
    <circle cx="479.2" cy="134.2" r="4" fill="#ef4444" stroke="#ffffff" stroke-width="1.5" opacity="0.9"/>
    <circle cx="499.8" cy="279.8" r="4" fill="#ef4444" stroke="#ffffff" stroke-width="1.5" opacity="0.9"/>
    <circle cx="714.0" cy="96.1" r="4" fill="#ef4444" stroke="#ffffff" stroke-width="1.5" opacity="0.9"/>
  
  
</svg>
